<svg id="SvgjsSvg1001" width="288" height="288" xmlns="http://www.w3.org/2000/svg" version="1.1" xmlns:xlink="http://www.w3.org/1999/xlink" xmlns:svgjs="http://svgjs.com/svgjs"><defs id="SvgjsDefs1002"></defs><g id="SvgjsG1008"><svg xmlns="http://www.w3.org/2000/svg" data-name="Layer 1" viewBox="0 0 24 24" width="288" height="288"><path d="M13.053,5.079c.971-.909,2.344-2.36,2.894-3.744,.255-.641-.257-1.335-.947-1.335h-6c-.69,0-1.202,.693-.947,1.335,.55,1.384,1.923,2.835,2.894,3.744C5.569,5.878,1,12.618,1,18c0,3.309,2.691,6,6,6h10c3.309,0,6-2.691,6-6,0-5.382-4.569-12.122-9.947-12.921Zm-2.409,8.682l3.042,.507c1.341,.223,2.315,1.373,2.315,2.733,0,1.654-1.346,3-3,3v1c0,.552-.448,1-1,1s-1-.448-1-1v-1h-.268c-1.068,0-2.063-.574-2.598-1.499-.276-.478-.113-1.089,.365-1.366,.476-.277,1.089-.114,1.366,.365,.178,.308,.511,.5,.867,.5h2.268c.551,0,1-.449,1-1,0-.378-.271-.698-.644-.76l-3.042-.507c-1.341-.223-2.315-1.373-2.315-2.733,0-1.654,1.346-3,3-3v-1c0-.552,.448-1,1-1s1,.448,1,1v1h.268c1.067,0,2.063,.575,2.598,1.5,.276,.478,.113,1.089-.365,1.366-.477,.277-1.089,.114-1.366-.365-.179-.309-.511-.5-.867-.5h-2.268c-.551,0-1,.449-1,1,0,.378,.271,.698,.644,.76Z" fill="#072b61" class="color000 svgShape"></path></svg></g></svg>